<svg xmlns="http://www.w3.org/2000/svg" id="stationery" width="38.184" height="39.171" viewBox="0 0 38.184 39.171">
    <defs>
        <style>
            .cls-1{fill:#fff}
        </style>
    </defs>
    <path id="Path_211" d="M108.424 14.637l1.271 3.2a1.057 1.057 0 0 0 1.966 0l1.271-3.2a1.379 1.379 0 0 0 .662-1.176v-2.71a.574.574 0 1 0-1.148 0v2.71a.232.232 0 0 1-.232.232h-3.072a.232.232 0 0 1-.232-.232V3.672a.232.232 0 0 1 .232-.232h3.072a.232.232 0 0 1 .232.232v4.58a.574.574 0 1 0 1.148 0v-4.58a1.374 1.374 0 0 0-.412-.982V1.508A1.381 1.381 0 0 0 111.8.129h-2.248a1.381 1.381 0 0 0-1.379 1.379v1.183a1.375 1.375 0 0 0-.412.982v9.788a1.379 1.379 0 0 0 .663 1.176zm2.253 2.569l-.938-2.365h1.876zm-1.124-15.93h2.247a.232.232 0 0 1 .232.232v.784h-2.712v-.784a.232.232 0 0 1 .233-.232zm0 0" class="cls-1" data-name="Path 211" transform="translate(-99.517 -.119)"/>
    <path id="Path_212" d="M7.981 30.367h3.309a1.459 1.459 0 0 0 1.457-1.457V5.766a1.454 1.454 0 0 0-.589-1.166L10.661.826a1.1 1.1 0 0 0-2.052 0L7.112 4.6a1.455 1.455 0 0 0-.589 1.168v23.141a1.459 1.459 0 0 0 1.458 1.458zm3.309-24.91a.31.31 0 0 1 .31.31v20.078a.58.58 0 0 0-.134-.016h-1.257V5.457zM9.061 25.829H7.8a.575.575 0 0 0-.133.016V5.766a.31.31 0 0 1 .31-.31h1.084zm2.228 3.39H7.981a.31.31 0 0 1-.31-.31V26.96a.561.561 0 0 0 .133.016h3.662a.58.58 0 0 0 .134-.016v1.949a.31.31 0 0 1-.31.31zM9.635 1.351l1.173 2.958H8.462zm0 0" class="cls-1" data-name="Path 212" transform="translate(-6.024 -.119)"/>
    <path id="Path_213" d="M104.661 276.453h3.614a1.459 1.459 0 0 0 1.457-1.453v-4.865a1.455 1.455 0 0 0-.553-1.141v-.931a1.459 1.459 0 0 0-1.458-1.457h-2.506a1.459 1.459 0 0 0-1.457 1.457v.931a1.454 1.454 0 0 0-.554 1.141V275a1.459 1.459 0 0 0 1.457 1.453zm3.923-1.453a.31.31 0 0 1-.31.31h-3.614a.31.31 0 0 1-.31-.31v-4.865a.31.31 0 0 1 .31-.31h3.614a.31.31 0 0 1 .31.31zm-3.37-7.247h2.506a.31.31 0 0 1 .31.31v.615h-3.13v-.615a.31.31 0 0 1 .314-.314zm0 0" class="cls-1" data-name="Path 213" transform="translate(-95.307 -246.205)"/>
    <path id="Path_214" d="M206.973 29.78h1.72a1.1 1.1 0 0 0 .989.616h.928a1.1 1.1 0 0 0 .989-.616h13.537a2.343 2.343 0 0 0 2.341-2.341V2.957a2.343 2.343 0 0 0-2.341-2.341H211.6a1.1 1.1 0 0 0-.99-.616h-.928a1.1 1.1 0 0 0-.989.616h-1.72a1.459 1.459 0 0 0-1.458 1.457v6.06a.574.574 0 0 0 1.148 0v-6.06a.31.31 0 0 1 .31-.31h1.605v26.869h-1.605a.31.31 0 0 1-.31-.31v-17.69a.574.574 0 0 0-1.148 0v17.69a1.459 1.459 0 0 0 1.458 1.458zm19.356-26.823v24.482a1.2 1.2 0 0 1-1.193 1.193h-13.422V1.763h13.422a1.2 1.2 0 0 1 1.193 1.194zm-16.6-1.809h.841v28.1h-.841zm0 0" class="cls-1" data-name="Path 214" transform="translate(-189.792)"/>
    <path id="Path_215" d="M407.2 336.468h1.981a.574.574 0 1 0 0-1.148H407.2a.574.574 0 0 0 0 1.148zm0 0" class="cls-1" data-name="Path 215" transform="translate(-375.519 -309.666)"/>
    <path id="Path_216" d="M432.241 317.1a.574.574 0 0 0 0-1.148h-.01a.574.574 0 0 0 .01 1.148zm0 0" class="cls-1" data-name="Path 216" transform="translate(-398.639 -291.781)"/>
    <path id="Path_217" d="M36.726 409.8H1.457A1.459 1.459 0 0 0 0 411.262v4.9a1.459 1.459 0 0 0 1.457 1.457h27.674a.574.574 0 1 0 0-1.148H1.457a.31.31 0 0 1-.31-.31v-4.9a.31.31 0 0 1 .31-.31h2.138v.865a.574.574 0 0 0 1.148 0v-.865h1.565v.865a.574.574 0 0 0 1.148 0v-.865h1.565v.865a.574.574 0 0 0 1.148 0v-.865h1.566v.865a.574.574 0 0 0 1.148 0v-.865h1.566v.865a.574.574 0 0 0 1.148 0v-.865h1.566v.865a.574.574 0 0 0 1.148 0v-.865h1.566v.865a.574.574 0 0 0 1.148 0v-.865h1.566v.865a.574.574 0 0 0 1.148 0v-.865H25.3v.865a.574.574 0 0 0 1.148 0v-.865h1.566v.865a.574.574 0 0 0 1.148 0v-.865h1.566v.865a.574.574 0 0 0 1.148 0v-.865h1.566v.865a.574.574 0 0 0 1.148 0v-.865h2.137a.31.31 0 0 1 .31.31v4.9a.31.31 0 0 1-.31.31h-5.1a.574.574 0 1 0 0 1.148h5.1a1.459 1.459 0 0 0 1.457-1.457v-4.9a1.459 1.459 0 0 0-1.458-1.462zm0 0" class="cls-1" data-name="Path 217" transform="translate(0 -378.452)"/>
</svg>
