<svg xmlns="http://www.w3.org/2000/svg" width="38.673" height="41.09" viewBox="0 0 38.673 41.09">
    <defs>
        <style>
            .cls-1{fill:#fff}
        </style>
    </defs>
    <g id="_002-shirt" data-name="002-shirt" transform="translate(-6 -2)">
        <g id="Group_91" data-name="Group 91" transform="translate(6 2)">
            <g id="Group_90" data-name="Group 90">
                <path id="Path_8" d="M228 29.1h3.347a.649.649 0 1 0 0-1.3H228a.649.649 0 0 0 0 1.3z" class="cls-1" data-name="Path 8" transform="translate(-210.317 -25.574)"/>
                <path id="Path_9" d="M53.712 15.464l-2.232-9.2a4.909 4.909 0 0 0-2.7-3.147C47.235 2.463 42.348.608 41.124.145A.646.646 0 0 0 40.716 0H28.077l-.034.005-.031.007-.028.007-.032.01-.016.005c-.252.1-6.193 2.341-7.927 3.078a4.9 4.9 0 0 0-2.695 3.126V6.258L15.722 12.8l-.646 2.662a.649.649 0 0 0 .391.756l6.378 2.534v21.689a.649.649 0 0 0 .649.649h23.8a.649.649 0 0 0 .649-.649v-14.99a.649.649 0 0 0-1.3 0v11.7H29.7a.649.649 0 1 0 0 1.3h15.946v1.34h-22.5v-1.34h4.4a.649.649 0 1 0 0-1.3h-4.4V10.5a.649.649 0 0 0-.094-.336l-3.275-5.407a3.133 3.133 0 0 1 .739-.443c1.328-.565 5.311-2.084 7.051-2.745.417 3.834 3.4 6.918 6.874 6.918s6.439-3.065 6.87-6.887c1.783.677 5.655 2.156 6.961 2.711a3.134 3.134 0 0 1 .739.443l-3.271 5.414a.649.649 0 0 0-.094.336v12.784a.649.649 0 1 0 1.3 0v-4.534l6.378-2.534a.649.649 0 0 0 .388-.756zm-31.867 1.894l-5.375-2.135.334-1.374 5.041 2.114v1.395zm0-6.673v3.871l-4.731-1.984 1.455-6a3.562 3.562 0 0 1 .329-.765zm12.6-3.5c-2.564 0-5.3-2.341-5.6-5.892h11.2C39.74 4.849 37 7.19 34.441 7.19zm12.5 3.5l2.946-4.875a3.882 3.882 0 0 1 .293.649l.016.041v.006l.007.023v.047l1.456 6-4.731 1.984v-3.875zm0 6.673v-1.395l5.041-2.114.333 1.374z" class="cls-1" data-name="Path 9" transform="translate(-15.057)"/>
            </g>
        </g>
    </g>
</svg>
