<svg xmlns="http://www.w3.org/2000/svg" id="_003-toothbrush" width="35.936" height="35.898" data-name="003-toothbrush" viewBox="0 0 35.936 35.898">
    <defs>
        <style>
            .cls-1{fill:#fff}
        </style>
    </defs>
    <g id="Group_92" data-name="Group 92">
        <path id="Path_10" d="M35.218 31.069l-6.36-6.359a.526.526 0 0 0-.744.744l4.061 4.061-1.963 1.963-10.491-10.491 1.963-1.962 5.237 5.237a.526.526 0 0 0 .744-.744l-3-3 3.672-4.077a.526.526 0 1 0-.782-.7l-3.635 4.036c-4.049-4.049-3.992-4.079-4.523-4.343a2.448 2.448 0 0 0-2.236.033l-3.124-1.1 9.342-8.416 6.834 6.834-1.482 1.646a.526.526 0 1 0 .782.7l3.629-4.029a1.172 1.172 0 0 0-.042-1.608l-1.074-1.076 3.5-3.5a1.389 1.389 0 0 0 0-1.963L33.238.676a1.387 1.387 0 0 0-1.963 0l-3.5 3.5-1.102-1.112a1.172 1.172 0 0 0-1.613-.042L12.907 13.969l-1.1-.385-1.307-1.306L13.087 9.7a1.627 1.627 0 0 0 0-2.3L7.372 1.677a1.627 1.627 0 0 0-2.3 0L2.426 4.32A1.675 1.675 0 0 0 .49 7c9.962 9.962 9.3 9.34 9.6 9.506l-9.7 8.741a1.174 1.174 0 0 0-.044 1.7l8.874 8.877a1.172 1.172 0 0 0 1.7-.045L21.4 24.15l10.366 10.371a2.441 2.441 0 1 0 3.451-3.451zM32.257 1.322c.192 0 .051-.087 2.521 2.382a.335.335 0 0 1 0 .474L32.957 6 30.2 3.241c1.966-1.967 1.868-1.919 2.057-1.919zm-2.8 2.663l2.758 2.758-.931.93-2.76-2.757zM25.764 3.8c.116-.1-.294-.454 6.594 6.433a.12.12 0 0 1 0 .165L30.921 12l-6.756-6.754zm-8.807 13.523a1.389 1.389 0 0 1 1.916-.975c.362.16.446.313 2.066 1.933l-1.963 1.963c-1.667-1.669-2.219-1.985-2.019-2.921zm-4.445-8.779c0 .319.067.171-2.752 2.99l-1.009-1.009 2.99-2.99c.63.63.771.709.771 1.009zM11 6.791l-2.99 2.99L6.916 8.69l2.99-2.99zM8.072 3.866l1.09 1.09-2.99 2.99-1.09-1.09zM6.221 2.253c.3 0 .367.128 1.106.868l-2.99 2.99L3.231 5C6.052 2.183 5.9 2.253 6.221 2.253zM1.053 5.816a.622.622 0 0 1 1.061-.44c9.711 9.711 9.068 9.1 9.235 9.162l4.929 1.729a2.44 2.44 0 0 0-.4 1.177l-4.621-1.621c-.607-.213-.674-.22-.8-.346C.524 5.545 1.053 6.184 1.053 5.816zm12.435 25.539l-1.369-1.369a.526.526 0 0 0-.744.744l1.408 1.408c-2.723 3.023-2.692 3.067-2.818 2.941l-1.317-1.317 1.026-1.026a.526.526 0 0 0-.744-.744L7.9 33.018l-1.085-1.089L7.841 30.9a.526.526 0 1 0-.744-.744L6.07 31.185 4.982 30.1l1.026-1.03a.526.526 0 0 0-.744-.744l-1.026 1.026-1.089-1.089 1.026-1.026a.526.526 0 1 0-.744-.744L2.4 27.519c-1.424-1.424-1.354-1.331-1.352-1.4s-.2.13 2.976-2.731l6.222 6.212a.526.526 0 1 0 .744-.744l-6.178-6.177 6.388-5.758 4.9 1.716c.279.606.412.625 4.554 4.767zm20 2.828a1.379 1.379 0 0 1-.981-.407l-1.554-1.554 1.963-1.963 1.554 1.554a1.389 1.389 0 0 1-.978 2.37z" class="cls-1" data-name="Path 10" transform="translate(0 -.269)"/>
    </g>
</svg>
