<svg xmlns="http://www.w3.org/2000/svg" width="14.279" height="9" viewBox="0 0 14.279 9">
    <defs>
        <style>
            .cls-1{fill:#c6c9d6}
        </style>
    </defs>
    <g id="chevron-arrow-down" transform="rotate(180 7.14 4.5)">
        <path id="Path_11" d="M13.94 83.252l-.687-.687a1.174 1.174 0 0 0-.834-.339 1.123 1.123 0 0 0-.825.339L7.14 87.019l-4.455-4.454a1.123 1.123 0 0 0-.825-.339 1.174 1.174 0 0 0-.834.339l-.678.687a1.137 1.137 0 0 0-.348.835 1.089 1.089 0 0 0 .348.825l5.966 5.966a1.09 1.09 0 0 0 .825.348 1.137 1.137 0 0 0 .834-.348l5.966-5.966a1.123 1.123 0 0 0 .339-.825 1.174 1.174 0 0 0-.338-.835z" class="cls-1" data-name="Path 11" transform="translate(0 -82.226)"/>
    </g>
</svg>
