<svg xmlns="http://www.w3.org/2000/svg" id="chevron-arrow-down" width="14.279" height="9" viewBox="0 0 14.279 9">
    <defs>
        <style>
            .cls-1{fill:#c6c9d6}
        </style>
    </defs>
    <path id="Path_11" d="M13.94 1.026l-.687-.687A1.174 1.174 0 0 0 12.419 0a1.123 1.123 0 0 0-.825.339L7.14 4.793 2.685.339A1.123 1.123 0 0 0 1.86 0a1.174 1.174 0 0 0-.834.339l-.678.687A1.137 1.137 0 0 0 0 1.861a1.089 1.089 0 0 0 .348.825l5.967 5.966A1.09 1.09 0 0 0 7.139 9a1.137 1.137 0 0 0 .834-.348l5.967-5.967a1.123 1.123 0 0 0 .339-.825 1.174 1.174 0 0 0-.339-.834z" class="cls-1" data-name="Path 11"/>
</svg>
